<svg width="31" height="31" viewBox="0 0 31 31" fill="none" xmlns="http://www.w3.org/2000/svg">
<path d="M15.5 0C6.944 0 0 6.944 0 15.5C0 24.056 6.944 31 15.5 31H23.25V27.9H15.5C8.773 27.9 3.1 22.227 3.1 15.5C3.1 8.773 8.773 3.1 15.5 3.1C22.227 3.1 27.9 8.773 27.9 15.5V17.7165C27.9 18.941 26.7995 20.15 25.575 20.15C24.3505 20.15 23.25 18.941 23.25 17.7165V15.5C23.25 11.222 19.778 7.75 15.5 7.75C11.222 7.75 7.75 11.222 7.75 15.5C7.75 19.778 11.222 23.25 15.5 23.25C17.639 23.25 19.592 22.382 20.987 20.9715C21.9945 22.351 23.7305 23.25 25.575 23.25C28.6285 23.25 31 20.77 31 17.7165V15.5C31 6.944 24.056 0 15.5 0ZM15.5 20.15C12.927 20.15 10.85 18.073 10.85 15.5C10.85 12.927 12.927 10.85 15.5 10.85C18.073 10.85 20.15 12.927 20.15 15.5C20.15 18.073 18.073 20.15 15.5 20.15Z" fill="black"/>
</svg>
