<svg width="32" height="31" viewBox="0 0 32 31" fill="none" xmlns="http://www.w3.org/2000/svg">
<path d="M15.5069 7.55199C11.1075 7.55199 7.55891 11.1006 7.55891 15.5C7.55891 19.8994 11.1075 23.448 15.5069 23.448C19.9063 23.448 23.4549 19.8994 23.4549 15.5C23.4549 11.1006 19.9063 7.55199 15.5069 7.55199ZM15.5069 20.6672C12.6639 20.6672 10.3397 18.3499 10.3397 15.5C10.3397 12.6501 12.657 10.3328 15.5069 10.3328C18.3569 10.3328 20.6742 12.6501 20.6742 15.5C20.6742 18.3499 18.3499 20.6672 15.5069 20.6672ZM25.6339 7.22688C25.6339 8.25756 24.8038 9.08072 23.78 9.08072C22.7494 9.08072 21.9262 8.25064 21.9262 7.22688C21.9262 6.20311 22.7563 5.37303 23.78 5.37303C24.8038 5.37303 25.6339 6.20311 25.6339 7.22688ZM30.898 9.10839C30.7804 6.62507 30.2132 4.42536 28.3939 2.61302C26.5816 0.80068 24.3818 0.23346 21.8985 0.108948C19.3391 -0.036316 11.6678 -0.036316 9.10839 0.108948C6.63199 0.226542 4.43228 0.793763 2.61302 2.6061C0.793763 4.41844 0.23346 6.61815 0.108948 9.10147C-0.036316 11.6609 -0.036316 19.3322 0.108948 21.8916C0.226542 24.3749 0.793763 26.5746 2.61302 28.387C4.43228 30.1993 6.62507 30.7665 9.10839 30.8911C11.6678 31.0363 19.3391 31.0363 21.8985 30.8911C24.3818 30.7735 26.5816 30.2062 28.3939 28.387C30.2062 26.5746 30.7735 24.3749 30.898 21.8916C31.0432 19.3322 31.0432 11.6678 30.898 9.10839ZM27.5915 24.6378C27.0519 25.9936 26.0074 27.0381 24.6447 27.5846C22.6041 28.3939 17.762 28.2071 15.5069 28.2071C13.2519 28.2071 8.40282 28.387 6.36913 27.5846C5.01333 27.045 3.96882 26.0005 3.42235 24.6378C2.61302 22.5972 2.79979 17.755 2.79979 15.5C2.79979 13.245 2.61994 8.39591 3.42235 6.36221C3.9619 5.00642 5.00641 3.9619 6.36913 3.41543C8.40974 2.6061 13.2519 2.79287 15.5069 2.79287C17.762 2.79287 22.611 2.61302 24.6447 3.41543C26.0005 3.95498 27.045 4.9995 27.5915 6.36221C28.4008 8.40282 28.214 13.245 28.214 15.5C28.214 17.755 28.4008 22.6041 27.5915 24.6378Z" fill="black"/>
</svg>
