<svg width="19" height="31" viewBox="0 0 19 31" fill="none" xmlns="http://www.w3.org/2000/svg">
<path d="M14.7955 0H3.52273C1.57818 0 0 1.57818 0 3.52273V27.4773C0 29.4218 1.57818 31 3.52273 31H14.7955C16.74 31 18.3182 29.4218 18.3182 27.4773V3.52273C18.3182 1.57818 16.74 0 14.7955 0ZM9.15909 29.5909C7.98955 29.5909 7.04545 28.6468 7.04545 27.4773C7.04545 26.3077 7.98955 25.3636 9.15909 25.3636C10.3286 25.3636 11.2727 26.3077 11.2727 27.4773C11.2727 28.6468 10.3286 29.5909 9.15909 29.5909ZM15.5 23.9545H2.81818V4.22727H15.5V23.9545Z" fill="black"/>
</svg>
