<svg width="31" height="27" viewBox="0 0 31 27" fill="none" xmlns="http://www.w3.org/2000/svg">
<path d="M30.9856 6.19165C30.8472 9.20856 28.7436 13.3395 24.6611 18.5845C20.4471 24.0647 16.8836 26.8049 13.9636 26.8049C12.1576 26.8049 10.6284 25.1373 9.37593 21.8021C6.94027 12.8621 5.90234 7.62399 3.88876 7.62399C3.6535 7.62399 2.84392 8.11528 1.4531 9.08401L0 7.2019C3.57047 4.06736 6.98178 0.57993 9.11991 0.386183C11.5348 0.15092 13.0156 1.80468 13.5761 5.33363C15.562 17.8925 16.4408 19.7885 20.0527 14.1007C21.3467 12.0525 22.0456 10.4956 22.1424 9.42306C22.4746 6.24701 19.6652 6.46151 17.7624 7.27801C19.2847 2.28905 22.1978 -0.13278 26.4948 0.00561028C29.6639 0.0886444 31.1655 2.15758 30.9856 6.19165Z" fill="black"/>
</svg>
