<svg width="31" height="22" viewBox="0 0 31 22" fill="none" xmlns="http://www.w3.org/2000/svg">
<path d="M30.3522 3.41047C29.9957 2.06803 28.9452 1.01077 27.6115 0.651975C25.194 0 15.5 0 15.5 0C15.5 0 5.80608 0 3.3885 0.651975C2.05475 1.01083 1.0043 2.06803 0.647775 3.41047C0 5.84371 0 10.9204 0 10.9204C0 10.9204 0 15.9972 0.647775 18.4304C1.0043 19.7729 2.05475 20.7861 3.3885 21.1449C5.80608 21.7968 15.5 21.7968 15.5 21.7968C15.5 21.7968 25.1939 21.7968 27.6115 21.1449C28.9452 20.7861 29.9957 19.7729 30.3522 18.4304C31 15.9972 31 10.9204 31 10.9204C31 10.9204 31 5.84371 30.3522 3.41047ZM12.3295 15.5297V6.31115L20.4318 10.9206L12.3295 15.5297Z" fill="black"/>
</svg>
